# xmcd CD database file
#
# Track frame offsets:
#	150
#	20222
#	37567
#	51458
#	66676
#	86699
#	101660
#	118752
#	134067
#	152826
#	172718
#	187513
#	203573
#	219243
#	233607
#
# Disc length: 3356 seconds
#
# Revision: 1
# Processed by: cddbd v1.5PL3 Copyright (c) Steve Scherf et al.
# Submitted via: CDex 1.51
#
DISCID=c80d1a0f
DTITLE=Ellis Hooks - Uncomplicated
DYEAR=2004
DGENRE=Blues
TTITLE0=It's Gonna Take SOme Time
TTITLE1=40 Days and 40 Nights
TTITLE2=Can't Take This No More
TTITLE3=Sweet Justina
TTITLE4=Uncomplicated
TTITLE5=The Hand of God
TTITLE6=She Locked The Door
TTITLE7=I Don't Want To Go Home
TTITLE8=The Idea Of You
TTITLE9=Never Give Up On Your Love
TTITLE10=It's A Hassle
TTITLE11=You Can't Change Me
TTITLE12=Slide The Gun
TTITLE13=M'Baby
TTITLE14=That's Not What I Need
EXTD=YEAR: 2004
EXTT0=
EXTT1=
EXTT2=
EXTT3=
EXTT4=
EXTT5=
EXTT6=
EXTT7=
EXTT8=
EXTT9=
EXTT10=
EXTT11=
EXTT12=
EXTT13=
EXTT14=
PLAYORDER=
